<svg width="20" height="20" viewBox="0 0 20 20" fill="none" xmlns="http://www.w3.org/2000/svg">
<path d="M17.5176 7.06248L17.1881 6.86773C16.8981 6.70938 16.6542 6.47048 16.4823 6.17655C16.4669 6.15077 16.4525 6.12309 16.4237 6.06963C16.2297 5.73919 16.1355 5.35383 16.1536 4.96507L16.159 4.55934C16.1698 3.91016 16.1752 3.58366 16.0888 3.29154C16.0124 3.03159 15.8844 2.79201 15.7134 2.5889C15.5207 2.35978 15.2533 2.19557 14.7176 1.86908L14.2728 1.597C13.7398 1.27145 13.4724 1.1082 13.1888 1.04615C12.9383 0.991143 12.6795 0.993421 12.4299 1.05283C12.1481 1.11966 11.8843 1.28768 11.3576 1.62182L11.3549 1.62373L11.0361 1.82516C10.9857 1.85762 10.9596 1.87289 10.9344 1.88817C10.6841 2.03614 10.405 2.11729 10.1178 2.12684C10.089 2.12875 10.0593 2.12875 10.0008 2.12875L9.88373 2.12779C9.59642 2.1182 9.31546 2.0357 9.06442 1.88722C9.03922 1.8729 9.01491 1.85667 8.96449 1.82421L8.64307 1.61991C8.11277 1.28195 7.84718 1.11393 7.56357 1.04615C7.31297 0.986612 7.05326 0.984659 6.80189 1.04042C6.51739 1.10343 6.25089 1.26763 5.71699 1.59604L5.71429 1.597L5.27493 1.86717L5.27043 1.87099C4.74103 2.19557 4.47544 2.35978 4.28456 2.58794C4.11447 2.79071 3.9871 3.02959 3.91093 3.28867C3.8254 3.58175 3.8299 3.90825 3.8407 4.56125L3.847 4.96603C3.847 5.02808 3.84971 5.05863 3.8488 5.08822C3.84405 5.43506 3.75037 5.77399 3.5778 6.06867C3.54809 6.12213 3.53459 6.14886 3.51928 6.17368C3.36748 6.43352 3.15906 6.65091 2.91156 6.80759L2.81072 6.86773L2.4857 7.05866C1.9437 7.37657 1.6727 7.536 1.47643 7.76321C1.30193 7.96353 1.16992 8.20117 1.08929 8.46012C0.999256 8.7532 0.999256 9.08066 1.00016 9.73747L1.00196 10.2749C1.00286 10.927 1.00466 11.2525 1.09559 11.5437C1.17589 11.8011 1.30694 12.0373 1.48003 12.2368C1.67631 12.4621 1.9446 12.6206 2.4821 12.9375L2.80442 13.1275C2.85934 13.16 2.88725 13.1752 2.91336 13.1924C3.1955 13.3718 3.42592 13.6296 3.57961 13.938L3.63993 14.0526C3.792 14.357 3.86356 14.6995 3.847 15.0435L3.8407 15.4321C3.8299 16.087 3.8254 16.4154 3.91183 16.7085C3.98836 16.9681 4.1162 17.2078 4.28727 17.4111C4.47994 17.6402 4.74824 17.8035 5.28303 18.1309L5.7278 18.403C6.26169 18.7286 6.52819 18.8918 6.81179 18.9539C7.06236 19.0088 7.3211 19.0066 7.57077 18.9472C7.85348 18.8803 8.11728 18.7123 8.64577 18.3763L8.96449 18.1739C9.23901 17.9865 9.55648 17.8819 9.88283 17.8713H10.1169C10.4032 17.8808 10.6841 17.9639 10.9362 18.1118L11.019 18.1643L11.3576 18.3801C11.8888 18.7181 12.1535 18.8861 12.4371 18.9529C12.6875 19.013 12.9472 19.0156 13.1987 18.9605C13.4824 18.8975 13.7506 18.7324 14.2845 18.404L14.7302 18.13C15.2596 17.8035 15.5252 17.6402 15.7161 17.4121C15.8871 17.2087 16.0132 16.9701 16.0897 16.7113C16.1752 16.4202 16.1707 16.0965 16.1599 15.4531L16.1527 15.033C16.1348 14.6449 16.2291 14.2602 16.4228 13.9304L16.4814 13.8254C16.6332 13.5655 16.8416 13.3481 17.0891 13.1915L17.1881 13.1332L17.1899 13.1323L17.5149 12.9413C18.0569 12.6225 18.3279 12.464 18.5251 12.2368C18.6998 12.0363 18.8312 11.7976 18.9113 11.5399C19.0014 11.2487 19.0014 10.9222 18.9996 10.273L18.9978 9.72506C18.9969 9.07302 18.996 8.74652 18.905 8.45535C18.8243 8.19828 18.693 7.96235 18.5197 7.76321C18.3243 7.53791 18.056 7.37943 17.5194 7.06344L17.5176 7.06248Z" stroke="white" stroke-width="1.2" stroke-linecap="round" stroke-linejoin="round"/>
<path d="M6.39844 9.99989C6.39844 11.0127 6.77786 11.984 7.45324 12.7001C8.12862 13.4163 9.04463 13.8186 9.99976 13.8186C10.9549 13.8186 11.8709 13.4163 12.5463 12.7001C13.2217 11.984 13.6011 11.0127 13.6011 9.99989C13.6011 8.98712 13.2217 8.01582 12.5463 7.29968C11.8709 6.58354 10.9549 6.18121 9.99976 6.18121C9.04463 6.18121 8.12862 6.58354 7.45324 7.29968C6.77786 8.01582 6.39844 8.98712 6.39844 9.99989Z" stroke="white" stroke-width="1.2" stroke-linecap="round" stroke-linejoin="round"/>
</svg>
