<svg width="50" height="50" viewBox="0 0 50 50" fill="none" xmlns="http://www.w3.org/2000/svg">
<path d="M50 24.868C50 38.6022 38.8071 49.7359 25 49.7359C11.1929 49.7359 0 38.6022 0 24.868C0 11.1338 11.1929 0 25 0C38.8071 0 50 11.1338 50 24.868Z" fill="black" fill-opacity="0.4"/>
<path d="M14 22.678C14 28.2979 18.422 31.2922 21.6582 33.9733C22.8 34.9186 23.9 35.8096 25 35.8096C26.1 35.8096 27.2 34.9198 28.3418 33.9722C31.5791 31.2934 36 28.2979 36 22.6792C36 17.0593 29.95 13.0735 25 18.4773C20.05 13.0723 14 17.0581 14 22.678Z" fill="white"/>
</svg>
