<svg width="20" height="20" viewBox="0 0 20 20" fill="none" xmlns="http://www.w3.org/2000/svg">
<path d="M0 2C0 1.46957 0.197544 0.960859 0.549175 0.585786C0.900805 0.210714 1.37772 0 1.875 0L11.875 0C12.3723 0 12.8492 0.210714 13.2008 0.585786C13.5525 0.960859 13.75 1.46957 13.75 2V4.66667C13.75 5.1971 13.5525 5.70581 13.2008 6.08088C12.8492 6.45595 12.3723 6.66667 11.875 6.66667H1.875C1.37772 6.66667 0.900805 6.45595 0.549175 6.08088C0.197544 5.70581 0 5.1971 0 4.66667L0 2ZM1.875 1.33333C1.70924 1.33333 1.55027 1.40357 1.43306 1.5286C1.31585 1.65362 1.25 1.82319 1.25 2V4.66667C1.25 4.84348 1.31585 5.01305 1.43306 5.13807C1.55027 5.26309 1.70924 5.33333 1.875 5.33333H11.875C12.0408 5.33333 12.1997 5.26309 12.3169 5.13807C12.4342 5.01305 12.5 4.84348 12.5 4.66667V2C12.5 1.82319 12.4342 1.65362 12.3169 1.5286C12.1997 1.40357 12.0408 1.33333 11.875 1.33333H1.875Z" fill="white"/>
<path d="M0 10.6667C0 9.95942 0.263392 9.28115 0.732233 8.78105C1.20107 8.28095 1.83696 8 2.5 8H17.5C18.163 8 18.7989 8.28095 19.2678 8.78105C19.7366 9.28115 20 9.95942 20 10.6667V17.3333C20 18.0406 19.7366 18.7189 19.2678 19.219C18.7989 19.719 18.163 20 17.5 20H2.5C1.83696 20 1.20107 19.719 0.732233 19.219C0.263392 18.7189 0 18.0406 0 17.3333V10.6667ZM1.25 14.6667V17.3333C1.25 17.687 1.3817 18.0261 1.61612 18.2761C1.85054 18.5262 2.16848 18.6667 2.5 18.6667H17.5C17.8315 18.6667 18.1495 18.5262 18.3839 18.2761C18.6183 18.0261 18.75 17.687 18.75 17.3333V14.6667H1.25ZM18.75 13.3333V10.6667C18.75 10.313 18.6183 9.97391 18.3839 9.72386C18.1495 9.47381 17.8315 9.33333 17.5 9.33333H2.5C2.16848 9.33333 1.85054 9.47381 1.61612 9.72386C1.3817 9.97391 1.25 10.313 1.25 10.6667V13.3333H18.75Z" fill="white"/>
</svg>
