<svg width="19" height="19" viewBox="0 0 19 19" fill="none" xmlns="http://www.w3.org/2000/svg">
<path fill-rule="evenodd" clip-rule="evenodd" d="M3.79987 7.59973V4.43318C3.79987 3.851 3.91453 3.27453 4.13732 2.73667C4.36011 2.19882 4.68666 1.71011 5.09831 1.29845C5.50997 0.886789 5.99868 0.560244 6.53654 0.337456C7.0744 0.114667 7.65087 0 8.23304 0C8.81522 0 9.39169 0.114667 9.92955 0.337456C10.4674 0.560244 10.9561 0.886789 11.3678 1.29845C11.7794 1.71011 12.106 2.19882 12.3288 2.73667C12.5516 3.27453 12.6662 3.851 12.6662 4.43318V7.59973H14.5662C15.07 7.59973 15.5533 7.7999 15.9096 8.15621C16.2659 8.51252 16.4661 8.99577 16.4661 9.49967V10.1963C17.1819 10.3417 17.8255 10.73 18.2877 11.2956C18.75 11.8611 19.0025 12.5691 19.0025 13.2995C19.0025 14.03 18.75 14.7379 18.2877 15.3035C17.8255 15.869 17.1819 16.2574 16.4661 16.4028V17.0994C16.4661 17.6033 16.2659 18.0865 15.9096 18.4429C15.5533 18.7992 15.07 18.9993 14.5662 18.9993H1.89993C1.39604 18.9993 0.912784 18.7992 0.556477 18.4429C0.200171 18.0865 0 17.6033 0 17.0994L0 9.49967C0 8.99577 0.200171 8.51252 0.556477 8.15621C0.912784 7.7999 1.39604 7.59973 1.89993 7.59973H3.79987ZM5.06649 4.43318C5.06649 3.59335 5.40011 2.78793 5.99395 2.19408C6.5878 1.60024 7.39322 1.26662 8.23304 1.26662C9.07287 1.26662 9.87829 1.60024 10.4721 2.19408C11.066 2.78793 11.3996 3.59335 11.3996 4.43318V7.59973H5.06649V4.43318ZM10.7663 11.3996C10.2624 11.3996 9.77914 11.5998 9.42283 11.9561C9.06653 12.3124 8.86635 12.7956 8.86635 13.2995C8.86635 13.8034 9.06653 14.2867 9.42283 14.643C9.77914 14.9993 10.2624 15.1995 10.7663 15.1995H15.8328C16.3367 15.1995 16.8199 14.9993 17.1762 14.643C17.5325 14.2867 17.7327 13.8034 17.7327 13.2995C17.7327 12.7956 17.5325 12.3124 17.1762 11.9561C16.8199 11.5998 16.3367 11.3996 15.8328 11.3996H10.7663Z" fill="white" fill-opacity="0.5"/>
<path d="M13.9328 13.2993C13.9328 13.6491 13.6493 13.9326 13.2995 13.9326C12.9497 13.9326 12.6662 13.6491 12.6662 13.2993C12.6662 12.9496 12.9497 12.666 13.2995 12.666C13.6493 12.666 13.9328 12.9496 13.9328 13.2993ZM10.1329 13.2993C10.1329 13.6491 10.4165 13.9326 10.7662 13.9326C11.116 13.9326 11.3996 13.6491 11.3996 13.2993C11.3996 12.9496 11.116 12.666 10.7662 12.666C10.4165 12.666 10.1329 12.9496 10.1329 13.2993ZM16.466 13.2993C16.466 13.6491 16.1825 13.9326 15.8327 13.9326C15.483 13.9326 15.1994 13.6491 15.1994 13.2993C15.1994 12.9496 15.483 12.666 15.8327 12.666C16.1825 12.666 16.466 12.9496 16.466 13.2993Z" fill="white" fill-opacity="0.5"/>
</svg>
