<svg width="26" height="24" viewBox="0 0 26 24" fill="none" xmlns="http://www.w3.org/2000/svg">
<path d="M12.3447 2.10304C12.5187 1.93131 12.7545 1.83486 13.0003 1.83486C13.2462 1.83486 13.482 1.93131 13.6559 2.10304L24.4053 12.7282C24.4909 12.8157 24.5933 12.8855 24.7065 12.9335C24.8197 12.9815 24.9415 13.0068 25.0646 13.0078C25.1878 13.0088 25.31 12.9855 25.424 12.9393C25.538 12.8932 25.6415 12.825 25.7286 12.7389C25.8156 12.6528 25.8845 12.5503 25.9311 12.4376C25.9777 12.3249 26.0011 12.2041 26 12.0824C25.9988 11.9606 25.9732 11.8403 25.9245 11.7285C25.8758 11.6166 25.8051 11.5154 25.7165 11.4309L14.9683 0.805772C14.7099 0.550311 14.4031 0.347668 14.0654 0.209413C13.7277 0.0711588 13.3658 0 13.0003 0C12.6348 0 12.2729 0.0711588 11.9352 0.209413C11.5975 0.347668 11.2907 0.550311 11.0323 0.805772L0.282908 11.4309C0.194341 11.5155 0.123713 11.6167 0.0751456 11.7286C0.026578 11.8405 0.00104327 11.9609 3.1306e-05 12.0826C-0.000980654 12.2044 0.0225504 12.3251 0.0692515 12.4378C0.115953 12.5505 0.184889 12.6529 0.272037 12.7389C0.359185 12.825 0.4628 12.893 0.576837 12.9391C0.690874 12.9851 0.813048 13.0083 0.936231 13.0072C1.05941 13.006 1.18114 12.9807 1.2943 12.9326C1.40747 12.8845 1.5098 12.8146 1.59534 12.7269L12.3447 2.10304Z" fill="#75859D"/>
<path d="M13.0002 4.04834L23.0927 14.0242C23.1298 14.0609 23.167 14.0951 23.2053 14.1294V21.7076C23.2053 22.973 22.1662 24.0001 20.886 24.0001H16.7112C16.4651 24.0001 16.2291 23.9035 16.0551 23.7315C15.8812 23.5595 15.7834 23.3263 15.7834 23.0831V17.581C15.7834 17.3378 15.6857 17.1045 15.5117 16.9326C15.3377 16.7606 15.1017 16.664 14.8557 16.664H11.1447C10.8987 16.664 10.6627 16.7606 10.4887 16.9326C10.3148 17.1045 10.217 17.3378 10.217 17.581V23.0831C10.217 23.3263 10.1193 23.5595 9.94528 23.7315C9.77129 23.9035 9.53532 24.0001 9.28927 24.0001H5.11446C4.49934 24.0001 3.9094 23.7586 3.47444 23.3286C3.03948 22.8987 2.79512 22.3156 2.79512 21.7076V14.1294C2.83361 14.0953 2.87114 14.0603 2.90769 14.0242L13.0002 4.04834Z" fill="#75859D"/>
</svg>
