<svg width="21" height="24" viewBox="0 0 21 24" fill="none" xmlns="http://www.w3.org/2000/svg">
<path d="M17.7898 14.3969C18.159 14.397 18.5246 14.467 18.8656 14.6028C19.2066 14.7386 19.5165 14.9376 19.7774 15.1883C20.0384 15.4391 20.2453 15.7368 20.3864 16.0643C20.5276 16.3919 20.6001 16.7429 20.6 17.0974V17.7876C20.6 18.8606 20.2 19.8988 19.4749 20.7137C17.5123 22.9138 14.5283 24 10.5956 24C6.6641 24 3.68017 22.9138 1.72255 20.7113C0.998261 19.8968 0.600235 18.861 0.599976 17.79V17.0962C0.599976 16.3803 0.896178 15.6937 1.42342 15.1875C1.95067 14.6813 2.66576 14.3969 3.4114 14.3969H17.7898ZM17.7898 16.1972H3.41015C3.28698 16.1971 3.16499 16.2203 3.05117 16.2654C2.93734 16.3106 2.83392 16.3769 2.74683 16.4605C2.65974 16.5442 2.59068 16.6435 2.54362 16.7527C2.49657 16.862 2.47243 16.9792 2.47259 17.0974V17.79C2.47259 18.4321 2.71261 19.0538 3.14763 19.5423C4.71398 21.3055 7.17289 22.1996 10.5943 22.1996C14.0183 22.1996 16.4772 21.3055 18.0486 19.5435C18.4844 19.0542 18.7238 18.4314 18.7236 17.7876V17.0962C18.7236 16.858 18.6251 16.6295 18.4498 16.461C18.2745 16.2924 18.0379 16.1976 17.7898 16.1972ZM10.5956 0C11.4164 -1.17434e-08 12.2292 0.155225 12.9875 0.456814C13.7459 0.758403 14.4349 1.20045 15.0153 1.75771C15.5957 2.31497 16.0561 2.97654 16.3702 3.70464C16.6843 4.43274 16.846 5.21311 16.846 6.0012C16.846 6.78929 16.6843 7.56966 16.3702 8.29776C16.0561 9.02586 15.5957 9.68743 15.0153 10.2447C14.4349 10.802 13.7459 11.244 12.9875 11.5456C12.2292 11.8472 11.4164 12.0024 10.5956 12.0024C8.93789 12.0024 7.34808 11.3701 6.17591 10.2447C5.00373 9.11925 4.34521 7.59282 4.34521 6.0012C4.34521 4.40958 5.00373 2.88315 6.17591 1.75771C7.34808 0.632268 8.93789 0 10.5956 0ZM10.5956 1.80036C10.021 1.80036 9.45209 1.90902 8.92126 2.12013C8.39042 2.33124 7.9081 2.64067 7.50181 3.03076C7.09553 3.42084 6.77325 3.88394 6.55337 4.39361C6.3335 4.90328 6.22033 5.44954 6.22033 6.0012C6.22033 6.55286 6.3335 7.09912 6.55337 7.60879C6.77325 8.11846 7.09553 8.58156 7.50181 8.97164C7.9081 9.36173 8.39042 9.67116 8.92126 9.88227C9.45209 10.0934 10.021 10.202 10.5956 10.202C11.756 10.202 12.8689 9.75945 13.6894 8.97164C14.5099 8.18383 14.9709 7.11533 14.9709 6.0012C14.9709 4.88707 14.5099 3.81857 13.6894 3.03076C12.8689 2.24295 11.756 1.80036 10.5956 1.80036Z" fill="#75859D"/>
</svg>
