<svg width="60" height="60" viewBox="0 0 60 60" fill="none" xmlns="http://www.w3.org/2000/svg">
<rect width="60" height="60" rx="30" fill="#313640"/>
<path fill-rule="evenodd" clip-rule="evenodd" d="M23.0404 27.3692C23.0404 25.4148 23.8168 23.5404 25.1988 22.1584C26.5808 20.7764 28.4552 20 30.4096 20C32.364 20 34.2384 20.7764 35.6204 22.1584C37.0024 23.5404 37.7788 25.4148 37.7788 27.3692V31.3318L39.6969 35.168C39.7852 35.3445 39.8269 35.5407 39.8181 35.7379C39.8092 35.9352 39.75 36.1268 39.6462 36.2948C39.5425 36.4627 39.3975 36.6013 39.225 36.6974C39.0526 36.7935 38.8584 36.844 38.661 36.8439H34.4879C34.2538 37.7474 33.7262 38.5476 32.9881 39.1188C32.2499 39.6901 31.343 40 30.4096 40C29.4762 40 28.5693 39.6901 27.8312 39.1188C27.093 38.5476 26.5654 37.7474 26.3313 36.8439H22.1582C21.9608 36.844 21.7666 36.7935 21.5942 36.6974C21.4218 36.6013 21.2768 36.4627 21.173 36.2948C21.0692 36.1268 21.01 35.9352 21.0012 35.7379C20.9923 35.5407 21.034 35.3445 21.1223 35.168L23.0404 31.3318V27.3692ZM28.5863 36.8439C28.7711 37.164 29.0368 37.4297 29.3569 37.6145C29.677 37.7993 30.04 37.8966 30.4096 37.8966C30.7792 37.8966 31.1422 37.7993 31.4623 37.6145C31.7824 37.4297 32.0482 37.164 32.233 36.8439H28.5863ZM30.4096 22.1055C29.0136 22.1055 27.6747 22.6601 26.6876 23.6472C25.7005 24.6343 25.1459 25.9732 25.1459 27.3692V31.3318C25.1459 31.6585 25.0698 31.9807 24.9238 32.2729L23.692 34.7384H37.1282L35.8965 32.2729C35.7501 31.9807 35.6737 31.6585 35.6733 31.3318V27.3692C35.6733 25.9732 35.1188 24.6343 34.1316 23.6472C33.1445 22.6601 31.8056 22.1055 30.4096 22.1055Z" fill="white"/>
</svg>
