<svg width="194" height="43" viewBox="0 0 194 43" fill="none" xmlns="http://www.w3.org/2000/svg">
<path d="M36.4735 21.7438V38.525C34.3806 40.0741 32.145 41.2119 29.7667 41.9386C27.4074 42.6462 24.8769 43 22.1752 43C18.8075 43 15.7538 42.4741 13.014 41.4223C10.2932 40.3705 7.96252 38.9075 6.02184 37.0334C4.10018 35.1592 2.61612 32.9217 1.56967 30.3209C0.523224 27.72 0 24.8801 0 21.8012C0 18.684 0.504198 15.825 1.51259 13.2241C2.52099 10.6233 3.94797 8.38581 5.79352 6.51167C7.6581 4.63753 9.91272 3.18412 12.5574 2.15143C15.202 1.11875 18.1702 0.602402 21.4617 0.602402C23.136 0.602402 24.6962 0.736269 26.1422 1.004C27.6072 1.27174 28.9581 1.64465 30.1948 2.12275C31.4505 2.58172 32.5921 3.14587 33.6195 3.81521C34.647 4.48454 35.5888 5.22081 36.445 6.02402L34.2474 9.52368C33.9049 10.0783 33.4578 10.4225 32.9061 10.5564C32.3543 10.6711 31.755 10.5277 31.1081 10.1261C30.4802 9.76273 29.8523 9.39938 29.2245 9.03602C28.5966 8.67267 27.8926 8.35713 27.1125 8.08939C26.3515 7.82166 25.4858 7.60173 24.5154 7.42962C23.5641 7.2575 22.4606 7.17145 21.2049 7.17145C19.169 7.17145 17.3235 7.51568 15.6682 8.20414C14.0319 8.8926 12.6335 9.87747 11.4729 11.1588C10.3123 12.4401 9.41804 13.9795 8.79017 15.7772C8.1623 17.5748 7.84837 19.5828 7.84837 21.8012C7.84837 24.1726 8.18133 26.2953 8.84725 28.1694C9.5322 30.0245 10.4835 31.6022 11.7012 32.9026C12.9379 34.1839 14.422 35.1688 16.1534 35.8572C17.8848 36.5266 19.8159 36.8612 21.9469 36.8612C23.469 36.8612 24.8294 36.6987 26.028 36.3736C27.2267 36.0485 28.3968 35.6086 29.5384 35.054V27.5384H24.3442C23.8495 27.5384 23.4595 27.4045 23.1741 27.1368C22.9077 26.8499 22.7745 26.5057 22.7745 26.1041V21.7438H36.4735Z" fill="white"/>
<path d="M63.5004 13.1094V42.541H59.1909C58.2587 42.541 57.6688 42.1107 57.4215 41.2502L56.9363 38.8979C55.7377 40.1219 54.4153 41.1163 52.9693 41.8813C51.5233 42.6271 49.8205 43 47.8608 43C46.2625 43 44.8451 42.7323 43.6084 42.1968C42.3907 41.6422 41.3633 40.8677 40.5261 39.8732C39.6889 38.8788 39.0516 37.7027 38.614 36.3449C38.1954 34.968 37.9861 33.4572 37.9861 31.8125V13.1094H45.0353V31.8125C45.0353 33.6102 45.4444 35.0062 46.2625 36.0007C47.0997 36.976 48.3459 37.4636 50.0012 37.4636C51.2189 37.4636 52.3605 37.1959 53.426 36.6604C54.4914 36.1059 55.4998 35.3505 56.4512 34.3943V13.1094H63.5004Z" fill="white"/>
<path d="M72.5189 13.1094V42.541H65.4411V13.1094H72.5189ZM73.4892 4.53235C73.4892 5.14432 73.3656 5.71803 73.1182 6.2535C72.8709 6.78897 72.5379 7.2575 72.1193 7.6591C71.7198 8.06071 71.2441 8.38581 70.6924 8.63442C70.1406 8.86391 69.5508 8.97865 68.9229 8.97865C68.3141 8.97865 67.7338 8.86391 67.182 8.63442C66.6493 8.38581 66.1831 8.06071 65.7836 7.6591C65.384 7.2575 65.0606 6.78897 64.8132 6.2535C64.5849 5.71803 64.4707 5.14432 64.4707 4.53235C64.4707 3.90127 64.5849 3.30843 64.8132 2.75383C65.0606 2.19924 65.384 1.72115 65.7836 1.31955C66.1831 0.917945 66.6493 0.602401 67.182 0.372916C67.7338 0.124305 68.3141 0 68.9229 0C69.5508 0 70.1406 0.124305 70.6924 0.372916C71.2441 0.602401 71.7198 0.917945 72.1193 1.31955C72.5379 1.72115 72.8709 2.19924 73.1182 2.75383C73.3656 3.30843 73.4892 3.90127 73.4892 4.53235Z" fill="white"/>
<path d="M91.041 29.9766C89.0052 30.0723 87.2928 30.2539 85.9039 30.5217C84.515 30.7703 83.402 31.0954 82.5648 31.497C81.7276 31.8986 81.1283 32.3671 80.7668 32.9026C80.4053 33.4381 80.2246 34.0213 80.2246 34.6524C80.2246 35.8955 80.5861 36.7847 81.3091 37.3202C82.0511 37.8557 83.0119 38.1234 84.1916 38.1234C85.6376 38.1234 86.8838 37.8652 87.9302 37.3489C88.9957 36.8134 90.0326 36.0102 91.041 34.9393V29.9766ZM74.8877 17.2115C78.2553 14.1134 82.308 12.5644 87.0455 12.5644C88.7579 12.5644 90.2895 12.8512 91.6404 13.4249C92.9912 13.9795 94.1328 14.7636 95.0651 15.7772C95.9974 16.7716 96.7014 17.9669 97.177 19.3629C97.6717 20.7589 97.9191 22.2889 97.9191 23.9526V42.541H94.7226C94.0567 42.541 93.543 42.4454 93.1815 42.2542C92.82 42.0438 92.5346 41.6326 92.3253 41.0207L91.6974 38.8979C90.9554 39.5673 90.2324 40.1601 89.5284 40.6764C88.8245 41.1737 88.092 41.5944 87.3309 41.9386C86.5698 42.2829 85.7517 42.541 84.8765 42.7131C84.0203 42.9044 83.069 43 82.0226 43C80.7858 43 79.6443 42.8374 78.5978 42.5123C77.5514 42.1681 76.6476 41.6613 75.8866 40.992C75.1255 40.3227 74.5357 39.4908 74.1171 38.4963C73.6985 37.5019 73.4892 36.3449 73.4892 35.0253C73.4892 34.2795 73.6129 33.5433 73.8603 32.8165C74.1076 32.0707 74.5072 31.3631 75.0589 30.6938C75.6297 30.0245 76.3622 29.3934 77.2565 28.8005C78.1507 28.2077 79.2447 27.6913 80.5385 27.2515C81.8513 26.8117 83.3734 26.4579 85.1048 26.1901C86.8362 25.9033 88.815 25.7312 91.041 25.6738V23.9526C91.041 21.9829 90.6225 20.5295 89.7853 19.5924C88.9481 18.6362 87.74 18.1581 86.1608 18.1581C85.0192 18.1581 84.0679 18.292 83.3068 18.5597C82.5648 18.8274 81.9084 19.1334 81.3376 19.4777C80.7668 19.8028 80.2436 20.0992 79.7679 20.3669C79.3113 20.6346 78.7976 20.7685 78.2268 20.7685C77.7321 20.7685 77.3135 20.6442 76.9711 20.3956C76.6286 20.1279 76.3527 19.8219 76.1434 19.4777L74.8877 17.2115Z" fill="white"/>
<path d="M105.825 18.2155C106.738 16.4561 107.822 15.0792 109.078 14.0847C110.334 13.0712 111.818 12.5644 113.53 12.5644C114.881 12.5644 115.966 12.8608 116.784 13.4536L116.327 18.7605C116.232 19.1047 116.089 19.3533 115.899 19.5063C115.728 19.6402 115.49 19.7071 115.185 19.7071C114.9 19.7071 114.472 19.6593 113.901 19.5637C113.349 19.4681 112.807 19.4203 112.274 19.4203C111.494 19.4203 110.8 19.535 110.191 19.7645C109.582 19.994 109.03 20.3287 108.536 20.7685C108.06 21.1892 107.632 21.7056 107.251 22.3175C106.89 22.9295 106.548 23.6275 106.224 24.4116V42.541H99.1748V13.1094H103.313C104.036 13.1094 104.54 13.2433 104.826 13.511C105.111 13.7596 105.301 14.2186 105.396 14.8879L105.825 18.2155Z" fill="white"/>
<path d="M166.756 1.06137V42.541H159.992V15.7485C159.992 14.6776 160.05 13.5206 160.164 12.2775L147.692 35.8286C147.102 36.9569 146.198 37.521 144.981 37.521H143.896C142.679 37.521 141.775 36.9569 141.185 35.8286L128.57 12.1915C128.628 12.8225 128.675 13.4441 128.713 14.056C128.751 14.668 128.77 15.2322 128.77 15.7485V42.541H122.006V1.06137H127.8C128.142 1.06137 128.437 1.07093 128.685 1.09006C128.932 1.10918 129.151 1.15699 129.341 1.23349C129.55 1.30998 129.731 1.43429 129.883 1.6064C130.055 1.77852 130.216 2.008 130.368 2.29486L142.726 25.3296C143.05 25.9415 143.344 26.5726 143.611 27.2228C143.896 27.873 144.172 28.5424 144.438 29.2308C144.705 28.5232 144.981 27.8443 145.266 27.1941C145.552 26.5248 145.856 25.8841 146.179 25.2722L158.366 2.29486C158.518 2.008 158.68 1.77852 158.851 1.6064C159.022 1.43429 159.203 1.30998 159.393 1.23349C159.602 1.15699 159.831 1.10918 160.078 1.09006C160.325 1.07093 160.62 1.06137 160.963 1.06137H166.756Z" fill="white"/>
<path d="M187.664 24.4403C187.664 23.5224 187.531 22.6618 187.265 21.8586C187.017 21.0362 186.637 20.3191 186.123 19.7071C185.609 19.0952 184.953 18.6171 184.154 18.2728C183.374 17.9095 182.461 17.7278 181.414 17.7278C179.378 17.7278 177.771 18.3111 176.591 19.4777C175.43 20.6442 174.688 22.2984 174.365 24.4403H187.664ZM174.222 28.7145C174.336 30.2253 174.603 31.5352 175.021 32.6444C175.44 33.7345 175.992 34.6429 176.677 35.3696C177.361 36.0772 178.17 36.6126 179.102 36.976C180.054 37.3202 181.1 37.4923 182.242 37.4923C183.383 37.4923 184.363 37.3585 185.181 37.0907C186.018 36.823 186.741 36.5266 187.35 36.2015C187.978 35.8764 188.52 35.5799 188.977 35.3122C189.453 35.0445 189.909 34.9106 190.347 34.9106C190.937 34.9106 191.374 35.1305 191.66 35.5704L193.686 38.1521C192.906 39.07 192.031 39.8446 191.06 40.4757C190.09 41.0876 189.072 41.5848 188.007 41.9673C186.96 42.3307 185.885 42.5888 184.782 42.7418C183.697 42.8948 182.641 42.9713 181.614 42.9713C179.578 42.9713 177.685 42.6366 175.934 41.9673C174.184 41.2789 172.662 40.2748 171.368 38.9553C170.074 37.6166 169.056 35.972 168.314 34.0213C167.572 32.0516 167.201 29.7759 167.201 27.1941C167.201 25.1861 167.525 23.3024 168.172 21.543C168.819 19.7645 169.741 18.225 170.94 16.9246C172.158 15.6051 173.632 14.5628 175.364 13.7979C177.114 13.0329 179.083 12.6504 181.271 12.6504C183.117 12.6504 184.82 12.9469 186.38 13.5397C187.94 14.1325 189.281 15.0027 190.404 16.1501C191.527 17.2784 192.402 18.6744 193.03 20.3382C193.677 21.9829 194 23.8666 194 25.9893C194 27.0603 193.886 27.787 193.658 28.1694C193.429 28.5328 192.992 28.7145 192.345 28.7145H174.222Z" fill="white"/>
</svg>
