<svg width="387" height="780" viewBox="0 0 387 780" fill="none" xmlns="http://www.w3.org/2000/svg">
<path fill-rule="evenodd" clip-rule="evenodd" d="M379.94 46.2696V123.34V221.43V733.73C379.94 759.284 359.225 780 333.671 780H53.2123C27.6583 780 6.94273 759.284 6.94273 733.73V266.842V201.449V188.733V123.34V46.2696C6.94273 20.7156 27.6583 0 53.2123 0H333.671C359.225 0 379.94 20.7156 379.94 46.2696Z" fill="#0E0F11"/>
<path d="M6.94273 201.449H6.20815C2.87198 201.449 0.167603 204.153 0.167603 207.489V260.802C0.167603 264.138 2.87198 266.842 6.20815 266.842H6.94273V201.449Z" fill="#313640"/>
<path d="M6.94273 123.34H6.20815C2.87198 123.34 0.167603 126.044 0.167603 129.38V182.693C0.167603 186.029 2.87198 188.733 6.20815 188.733H6.94273V123.34Z" fill="#313640"/>
<path d="M380.675 123.34H379.94V221.43H380.675C384.011 221.43 386.716 218.726 386.716 215.389V129.38C386.716 126.044 384.011 123.34 380.675 123.34Z" fill="#313640"/>
<rect x="20.4064" y="11.4446" width="346" height="757.112" rx="38.6549" fill="white"/>
</svg>
