<svg width="18" height="16" viewBox="0 0 18 16" fill="none" xmlns="http://www.w3.org/2000/svg">
<path d="M11.2601 13.9411L11.2609 13.9404C11.5226 13.7275 11.7886 13.5159 12.0558 13.3033C13.1856 12.4043 14.3388 11.4868 15.2917 10.3787C16.4447 9.03805 17.25 7.47305 17.25 5.43986C17.25 3.44728 16.1598 1.79349 14.6986 1.10373C13.2918 0.439641 11.3845 0.601855 9.54869 2.57179L8.99994 3.16064L8.45126 2.57173C6.61545 0.601324 4.70814 0.43897 3.30137 1.10293C1.84017 1.79258 0.75 3.44634 0.75 5.43893C0.75 7.47255 1.5555 9.03755 2.7086 10.3783C3.66 11.4846 4.81054 12.4008 5.93826 13.2989C6.20755 13.5133 6.47554 13.7267 6.73921 13.9414L11.2601 13.9411ZM11.2601 13.9411C10.7863 14.3276 10.3681 14.6625 9.96673 14.9048C9.56448 15.1476 9.25352 15.25 9 15.25C8.74666 15.25 8.43577 15.1475 8.03327 14.9046M11.2601 13.9411L8.03327 14.9046M8.03327 14.9046C7.63169 14.6622 7.21353 14.3274 6.7394 13.9416L8.03327 14.9046Z" stroke="white" stroke-opacity="0.5" stroke-width="1.5"/>
</svg>
