<svg width="19" height="19" viewBox="0 0 19 19" fill="none" xmlns="http://www.w3.org/2000/svg">
<path d="M13.7855 5.21455L14.7778 7.389L15.77 5.21455L17.9444 4.22233L15.77 3.23011L14.7778 1.05566L13.7855 3.23011L11.6111 4.22233L13.7855 5.21455ZM9.49999 5.27789L8.18055 8.18066L5.27777 9.50011L8.18055 10.8196L9.49999 13.7223L10.8194 10.8196L13.7222 9.50011L10.8194 8.18066L9.49999 5.27789Z" fill="white" fill-opacity="0.5"/>
<path d="M17.8889 7.38889C17.3366 7.38889 16.8889 7.8366 16.8889 8.38889V16.8527C16.8889 16.8727 16.8727 16.8889 16.8527 16.8889H2.11561C2.10146 16.8889 2.09 16.8774 2.09 16.8633V2.13439C2.09 2.12153 2.10042 2.11111 2.11328 2.11111H10.59C11.1423 2.11111 11.59 1.6634 11.59 1.11111V1C11.59 0.447715 11.1423 0 10.59 0H2.11111C0.95 0 0 0.95 0 2.11111V16.8889C0 18.05 0.95 19 2.11111 19H16.8889C18.05 19 19 18.05 19 16.8889V8.38889C19 7.8366 18.5523 7.38889 18 7.38889H17.8889Z" fill="white" fill-opacity="0.5"/>
</svg>
