<svg width="18" height="18" viewBox="0 0 18 18" fill="none" xmlns="http://www.w3.org/2000/svg">
<path d="M2 18C1.45 18 0.979333 17.8043 0.588 17.413C0.196667 17.0217 0.000666667 16.5507 0 16V2C0 1.45 0.196 0.979333 0.588 0.588C0.98 0.196667 1.45067 0.000666667 2 0H8C8.55229 0 9 0.447715 9 1C9 1.55228 8.55228 2 8 2H2.01953C2.00874 2 2 2.00874 2 2.01953V15.9766C2 15.9895 2.01049 16 2.02344 16H8C8.55229 16 9 16.4477 9 17C9 17.5523 8.55228 18 8 18H2ZM13.7252 13.2748C13.3279 13.6721 12.681 13.6636 12.2943 13.2558C11.9218 12.863 11.93 12.245 12.3127 11.8623L14.1578 10.0172C14.1642 10.0108 14.1597 10 14.1507 10H7C6.44771 10 6 9.55229 6 9C6 8.44771 6.44772 8 7 8H14.1507C14.1597 8 14.1642 7.98916 14.1578 7.98281L12.3135 6.13851C11.9303 5.75533 11.9221 5.13667 12.295 4.74346C12.6815 4.33582 13.328 4.32655 13.726 4.72293L17 7.98281C17.5537 8.54599 17.5498 9.45019 16.9914 10.0086L13.7252 13.2748Z" fill="#FF7E7E"/>
</svg>
