<svg width="140" height="140" viewBox="0 0 140 140" fill="none" xmlns="http://www.w3.org/2000/svg">
<circle cx="70" cy="70" r="70" fill="#005DDF"/>
<path fill-rule="evenodd" clip-rule="evenodd" d="M93.3334 81.5509H83.9538C83.9538 89.3212 77.6547 95.6203 69.8843 95.6203C62.114 95.6203 55.8149 89.3212 55.8149 81.5509H46.4353C46.4353 94.5014 56.9338 105 69.8843 105C82.8349 105 93.3334 94.5014 93.3334 81.5509Z" fill="white"/>
<path fill-rule="evenodd" clip-rule="evenodd" d="M46.4353 58.1019C46.4353 45.1513 56.9338 34.6528 69.8843 34.6528C82.8349 34.6528 93.3334 45.1513 93.3334 58.1019C93.3334 62.373 92.1915 66.3773 90.1963 69.8264C89.7255 70.6402 89.2073 71.4231 88.6453 72.1713C87.1517 74.1597 85.3494 75.9029 83.3096 77.3298C79.5065 79.9901 74.8777 81.5509 69.8843 81.5509C64.891 81.5509 60.2621 79.9901 56.4591 77.3298C54.4192 75.9029 52.6169 74.1597 51.1234 72.1713C50.5614 71.4231 50.0431 70.6402 49.5724 69.8264C47.5772 66.3773 46.4353 62.373 46.4353 58.1019ZM69.8843 72.1713C77.6547 72.1713 83.9538 65.8722 83.9538 58.1019C83.9538 50.3315 77.6547 44.0324 69.8843 44.0324C62.114 44.0324 55.8149 50.3315 55.8149 58.1019C55.8149 65.8722 62.114 72.1713 69.8843 72.1713Z" fill="white"/>
</svg>
