<svg width="20" height="20" viewBox="0 0 20 20" fill="none" xmlns="http://www.w3.org/2000/svg">
<path d="M8.22952 0.596873C8.23697 0.596868 8.24441 0.596725 8.25184 0.596443C8.28915 0.60082 8.32411 0.617622 8.35091 0.644422C8.38235 0.675859 8.4 0.718478 8.4 0.762898V8.22768C8.4 8.32014 8.32496 8.39527 8.23228 8.39527L8.2319 8.39527L0.767718 8.4C0.675009 8.4 0.6 8.32484 0.6 8.2324V0.769197C0.6 0.724778 0.617647 0.682159 0.64909 0.650721C0.680536 0.61928 0.723206 0.6016 0.767718 0.6016L0.768098 0.6016L8.22952 0.596873ZM0.767718 11.6H8.22914H8.23228C8.27679 11.6 8.31946 11.6177 8.35091 11.6491C8.38235 11.6806 8.4 11.7232 8.4 11.7676V19.2324C8.4 19.3249 8.32496 19.4 8.23228 19.4H0.767718C0.67501 19.4 0.6 19.3249 0.6 19.2324V11.7676C0.6 11.7232 0.617647 11.6806 0.64909 11.6491C0.680536 11.6177 0.723206 11.6 0.767718 11.6ZM11.7677 11.6H19.2323C19.2768 11.6 19.3195 11.6177 19.3509 11.6491C19.3824 11.6806 19.4 11.7232 19.4 11.7676V19.2324C19.4 19.3249 19.325 19.4 19.2323 19.4H11.7677C11.6742 19.4 11.6 19.3257 11.6 19.2324V11.7676C11.6 11.7232 11.6176 11.6806 11.6491 11.6491C11.6805 11.6177 11.7232 11.6 11.7677 11.6Z" stroke="white" stroke-width="1.2" stroke-linecap="round" stroke-linejoin="round"/>
<path d="M15.2785 0.168746C15.3482 -0.0562484 15.6518 -0.0562489 15.7215 0.168746L16.6241 3.08196C16.6553 3.18258 16.7447 3.25071 16.8456 3.25071H19.7667C19.9923 3.25071 20.0861 3.55344 19.9036 3.69249L17.5404 5.49296C17.4588 5.55515 17.4246 5.66538 17.4558 5.766L18.3584 8.67922C18.4281 8.90421 18.1826 9.09131 18.0001 8.95225L15.6369 7.15178C15.5553 7.0896 15.4447 7.0896 15.3631 7.15178L12.9999 8.95225C12.8174 9.09131 12.5719 8.90421 12.6416 8.67922L13.5442 5.766C13.5754 5.66538 13.5412 5.55515 13.4596 5.49296L11.0964 3.69249C10.9139 3.55344 11.0077 3.25071 11.2333 3.25071H14.1544C14.2553 3.25071 14.3447 3.18258 14.3759 3.08196L15.2785 0.168746Z" fill="white"/>
</svg>
