<svg width="370" height="341" viewBox="0 0 370 341" fill="none" xmlns="http://www.w3.org/2000/svg">
<circle cx="185" cy="98" r="129.179" stroke="white" stroke-opacity="0.3" stroke-width="2"/>
<circle cx="185" cy="98" r="186.089" stroke="white" stroke-opacity="0.2"/>
<circle cx="185" cy="98" r="242.5" stroke="white" stroke-opacity="0.1"/>
<circle cx="185.189" cy="98.1887" r="64.1887" fill="#005DDF"/>
<path fill-rule="evenodd" clip-rule="evenodd" d="M206.585 108.781H197.984C197.984 115.906 192.208 121.682 185.083 121.682C177.957 121.682 172.181 115.906 172.181 108.781H163.58C163.58 120.656 173.207 130.283 185.083 130.283C196.958 130.283 206.585 120.656 206.585 108.781Z" fill="white"/>
<path fill-rule="evenodd" clip-rule="evenodd" d="M163.58 87.2784C163.58 75.403 173.207 65.7761 185.083 65.7761C196.958 65.7761 206.585 75.403 206.585 87.2784C206.585 91.195 205.538 94.8669 203.708 98.0296C203.277 98.7759 202.801 99.4938 202.286 100.18C200.917 102.003 199.264 103.602 197.393 104.91C193.906 107.35 189.662 108.781 185.083 108.781C180.504 108.781 176.259 107.35 172.772 104.91C170.901 103.602 169.249 102.003 167.879 100.18C167.364 99.4938 166.889 98.7759 166.457 98.0296C164.627 94.8669 163.58 91.195 163.58 87.2784ZM185.083 100.18C192.208 100.18 197.984 94.4037 197.984 87.2784C197.984 80.1532 192.208 74.3771 185.083 74.3771C177.957 74.3771 172.181 80.1532 172.181 87.2784C172.181 94.4037 177.957 100.18 185.083 100.18Z" fill="white"/>
</svg>
