<svg width="25" height="26" viewBox="0 0 25 26" fill="none" xmlns="http://www.w3.org/2000/svg">
<path d="M24.7569 10.5519H23.75V10.5H12.5V15.5H19.5644C18.5338 18.4106 15.7644 20.5 12.5 20.5C8.35813 20.5 5 17.1419 5 13C5 8.85813 8.35813 5.5 12.5 5.5C14.4119 5.5 16.1513 6.22125 17.4756 7.39938L21.0113 3.86375C18.7788 1.78313 15.7925 0.5 12.5 0.5C5.59688 0.5 0 6.09688 0 13C0 19.9031 5.59688 25.5 12.5 25.5C19.4031 25.5 25 19.9031 25 13C25 12.1619 24.9138 11.3438 24.7569 10.5519Z" fill="#FFC107"/>
<path d="M1.44126 7.18188L5.54814 10.1938C6.65939 7.4425 9.35063 5.5 12.5 5.5C14.4119 5.5 16.1513 6.22125 17.4756 7.39938L21.0113 3.86375C18.7788 1.78313 15.7925 0.5 12.5 0.5C7.69875 0.5 3.53501 3.21063 1.44126 7.18188Z" fill="#FF3D00"/>
<path d="M12.5 25.5C15.7288 25.5 18.6625 24.2644 20.8806 22.255L17.0118 18.9813C15.7147 19.9678 14.1297 20.5013 12.5 20.5C9.24875 20.5 6.48809 18.4269 5.44809 15.5338L1.37183 18.6744C3.44059 22.7225 7.64188 25.5 12.5 25.5Z" fill="#4CAF50"/>
<path d="M24.747 10.5L23.75 10.5H12.5V15.5H19.5644C19.0714 16.8853 18.1833 18.0957 17.01 18.9819L17.0118 18.9813L20.8806 22.255C20.6068 22.5038 25 19.25 25 13C25 12.1619 24.9039 11.2919 24.747 10.5Z" fill="#1976D2"/>
</svg>
