<svg width="140" height="140" viewBox="0 0 140 140" fill="none" xmlns="http://www.w3.org/2000/svg">
<circle cx="70" cy="70" r="70" fill="white"/>
<path fill-rule="evenodd" clip-rule="evenodd" d="M93.3334 81.551H83.9538C83.9538 89.3213 77.6547 95.6204 69.8843 95.6204C62.114 95.6204 55.8149 89.3213 55.8149 81.551H46.4353C46.4353 94.5015 56.9338 105 69.8843 105C82.8349 105 93.3334 94.5015 93.3334 81.551Z" fill="#005DDF"/>
<path fill-rule="evenodd" clip-rule="evenodd" d="M46.4353 58.102C46.4353 45.1514 56.9338 34.6529 69.8843 34.6529C82.8349 34.6529 93.3334 45.1514 93.3334 58.102C93.3334 62.373 92.1915 66.3774 90.1963 69.8265C89.7255 70.6403 89.2073 71.4232 88.6453 72.1714C87.1517 74.1598 85.3494 75.903 83.3096 77.3299C79.5065 79.9902 74.8777 81.551 69.8843 81.551C64.891 81.551 60.2621 79.9902 56.4591 77.3299C54.4192 75.903 52.6169 74.1598 51.1234 72.1714C50.5614 71.4232 50.0431 70.6403 49.5724 69.8265C47.5772 66.3774 46.4353 62.373 46.4353 58.102ZM69.8843 72.1714C77.6547 72.1714 83.9538 65.8723 83.9538 58.102C83.9538 50.3316 77.6547 44.0325 69.8843 44.0325C62.114 44.0325 55.8149 50.3316 55.8149 58.102C55.8149 65.8723 62.114 72.1714 69.8843 72.1714Z" fill="#005DDF"/>
</svg>
