<svg width="24" height="26" viewBox="0 0 24 26" fill="none" xmlns="http://www.w3.org/2000/svg">
<path d="M12 21.2727C12.2373 21.2727 12.4693 21.2034 12.6667 21.0736C12.864 20.9437 13.0178 20.7591 13.1087 20.5432C13.1995 20.3272 13.2232 20.0896 13.1769 19.8603C13.1306 19.6311 13.0164 19.4205 12.8485 19.2552C12.6807 19.09 12.4669 18.9774 12.2341 18.9318C12.0013 18.8862 11.7601 18.9096 11.5408 18.9991C11.3215 19.0885 11.1341 19.24 11.0022 19.4343C10.8704 19.6287 10.8 19.8572 10.8 20.0909C10.8 20.4043 10.9264 20.7049 11.1515 20.9266C11.3765 21.1482 11.6817 21.2727 12 21.2727ZM18 21.2727C18.2373 21.2727 18.4693 21.2034 18.6667 21.0736C18.864 20.9437 19.0178 20.7591 19.1087 20.5432C19.1995 20.3272 19.2232 20.0896 19.1769 19.8603C19.1306 19.6311 19.0164 19.4205 18.8485 19.2552C18.6807 19.09 18.4669 18.9774 18.2341 18.9318C18.0013 18.8862 17.7601 18.9096 17.5408 18.9991C17.3215 19.0885 17.1341 19.24 17.0022 19.4343C16.8704 19.6287 16.8 19.8572 16.8 20.0909C16.8 20.4043 16.9264 20.7049 17.1515 20.9266C17.3765 21.1482 17.6817 21.2727 18 21.2727ZM18 16.5455C18.2373 16.5455 18.4693 16.4761 18.6667 16.3463C18.864 16.2164 19.0178 16.0318 19.1087 15.8159C19.1995 15.5999 19.2232 15.3623 19.1769 15.1331C19.1306 14.9038 19.0164 14.6932 18.8485 14.528C18.6807 14.3627 18.4669 14.2501 18.2341 14.2045C18.0013 14.1589 17.7601 14.1823 17.5408 14.2718C17.3215 14.3612 17.1341 14.5127 17.0022 14.7071C16.8704 14.9014 16.8 15.1299 16.8 15.3636C16.8 15.6771 16.9264 15.9777 17.1515 16.1993C17.3765 16.4209 17.6817 16.5455 18 16.5455ZM12 16.5455C12.2373 16.5455 12.4693 16.4761 12.6667 16.3463C12.864 16.2164 13.0178 16.0318 13.1087 15.8159C13.1995 15.5999 13.2232 15.3623 13.1769 15.1331C13.1306 14.9038 13.0164 14.6932 12.8485 14.528C12.6807 14.3627 12.4669 14.2501 12.2341 14.2045C12.0013 14.1589 11.7601 14.1823 11.5408 14.2718C11.3215 14.3612 11.1341 14.5127 11.0022 14.7071C10.8704 14.9014 10.8 15.1299 10.8 15.3636C10.8 15.6771 10.9264 15.9777 11.1515 16.1993C11.3765 16.4209 11.6817 16.5455 12 16.5455ZM20.4 2.36364H19.2V1.18182C19.2 0.86838 19.0736 0.56778 18.8485 0.346146C18.6235 0.124513 18.3183 0 18 0C17.6817 0 17.3765 0.124513 17.1515 0.346146C16.9264 0.56778 16.8 0.86838 16.8 1.18182V2.36364H7.2V1.18182C7.2 0.86838 7.07357 0.56778 6.84853 0.346146C6.62348 0.124513 6.31826 0 6 0C5.68174 0 5.37652 0.124513 5.15147 0.346146C4.92643 0.56778 4.8 0.86838 4.8 1.18182V2.36364H3.6C2.64522 2.36364 1.72955 2.73717 1.05442 3.40208C0.379285 4.06698 0 4.96878 0 5.90909V22.4545C0 23.3949 0.379285 24.2967 1.05442 24.9616C1.72955 25.6265 2.64522 26 3.6 26H20.4C21.3548 26 22.2705 25.6265 22.9456 24.9616C23.6207 24.2967 24 23.3949 24 22.4545V5.90909C24 4.96878 23.6207 4.06698 22.9456 3.40208C22.2705 2.73717 21.3548 2.36364 20.4 2.36364ZM21.6 22.4545C21.6 22.768 21.4736 23.0686 21.2485 23.2902C21.0235 23.5119 20.7183 23.6364 20.4 23.6364H3.6C3.28174 23.6364 2.97652 23.5119 2.75147 23.2902C2.52643 23.0686 2.4 22.768 2.4 22.4545V11.8182H21.6V22.4545ZM21.6 9.45455H2.4V5.90909C2.4 5.59565 2.52643 5.29505 2.75147 5.07342C2.97652 4.85179 3.28174 4.72727 3.6 4.72727H4.8V5.90909C4.8 6.22253 4.92643 6.52313 5.15147 6.74476C5.37652 6.9664 5.68174 7.09091 6 7.09091C6.31826 7.09091 6.62348 6.9664 6.84853 6.74476C7.07357 6.52313 7.2 6.22253 7.2 5.90909V4.72727H16.8V5.90909C16.8 6.22253 16.9264 6.52313 17.1515 6.74476C17.3765 6.9664 17.6817 7.09091 18 7.09091C18.3183 7.09091 18.6235 6.9664 18.8485 6.74476C19.0736 6.52313 19.2 6.22253 19.2 5.90909V4.72727H20.4C20.7183 4.72727 21.0235 4.85179 21.2485 5.07342C21.4736 5.29505 21.6 5.59565 21.6 5.90909V9.45455ZM6 16.5455C6.23734 16.5455 6.46935 16.4761 6.66668 16.3463C6.86402 16.2164 7.01783 16.0318 7.10866 15.8159C7.19948 15.5999 7.22325 15.3623 7.17694 15.1331C7.13064 14.9038 7.01635 14.6932 6.84853 14.528C6.68071 14.3627 6.46689 14.2501 6.23411 14.2045C6.00133 14.1589 5.76005 14.1823 5.54078 14.2718C5.32151 14.3612 5.13409 14.5127 5.00224 14.7071C4.87038 14.9014 4.8 15.1299 4.8 15.3636C4.8 15.6771 4.92643 15.9777 5.15147 16.1993C5.37652 16.4209 5.68174 16.5455 6 16.5455ZM6 21.2727C6.23734 21.2727 6.46935 21.2034 6.66668 21.0736C6.86402 20.9437 7.01783 20.7591 7.10866 20.5432C7.19948 20.3272 7.22325 20.0896 7.17694 19.8603C7.13064 19.6311 7.01635 19.4205 6.84853 19.2552C6.68071 19.09 6.46689 18.9774 6.23411 18.9318C6.00133 18.8862 5.76005 18.9096 5.54078 18.9991C5.32151 19.0885 5.13409 19.24 5.00224 19.4343C4.87038 19.6287 4.8 19.8572 4.8 20.0909C4.8 20.4043 4.92643 20.7049 5.15147 20.9266C5.37652 21.1482 5.68174 21.2727 6 21.2727Z" fill="white"/>
</svg>
