<svg width="20" height="20" viewBox="0 0 20 20" fill="none" xmlns="http://www.w3.org/2000/svg">
<path d="M8.6008 17.2016C6.89972 17.2016 5.23685 16.6972 3.82245 15.7521C2.40806 14.807 1.30567 13.4638 0.6547 11.8922C0.00372653 10.3206 -0.166598 8.59126 0.165266 6.92287C0.497129 5.25448 1.31628 3.72196 2.51912 2.51912C3.72196 1.31628 5.25448 0.497129 6.92287 0.165266C8.59126 -0.166598 10.3206 0.00372653 11.8922 0.6547C13.4638 1.30567 14.807 2.40806 15.7521 3.82245C16.6972 5.23685 17.2016 6.89972 17.2016 8.6008C17.2016 9.73027 16.9791 10.8487 16.5469 11.8922C16.1147 12.9357 15.4811 13.8838 14.6825 14.6825C13.8838 15.4811 12.9357 16.1147 11.8922 16.5469C10.8487 16.9791 9.73027 17.2016 8.6008 17.2016ZM8.6008 1.72473C7.24536 1.72473 5.92036 2.12667 4.79335 2.87971C3.66634 3.63275 2.78795 4.70308 2.26925 5.95534C1.75054 7.2076 1.61483 8.58556 1.87926 9.91495C2.14369 11.2443 2.7964 12.4655 3.75484 13.4239C4.71328 14.3824 5.9344 15.0351 7.2638 15.2995C8.59319 15.5639 9.97115 15.4282 11.2234 14.9095C12.4757 14.3908 13.546 13.5124 14.299 12.3854C15.0521 11.2584 15.454 9.93339 15.454 8.57795C15.454 6.76037 14.732 5.01722 13.4468 3.73199C12.1615 2.44677 10.4184 1.72473 8.6008 1.72473Z" fill="white"/>
<path d="M19.1433 20C19.0308 20.0005 18.9193 19.9786 18.8153 19.9354C18.7113 19.8923 18.6171 19.8288 18.538 19.7487L13.8207 15.0314C13.6693 14.869 13.587 14.6542 13.5909 14.4323C13.5948 14.2104 13.6847 13.9986 13.8417 13.8417C13.9986 13.6847 14.2104 13.5948 14.4323 13.5909C14.6542 13.587 14.869 13.6693 15.0314 13.8207L19.7487 18.538C19.9091 18.6986 19.9992 18.9163 19.9992 19.1433C19.9992 19.3703 19.9091 19.5881 19.7487 19.7487C19.6696 19.8288 19.5753 19.8923 19.4714 19.9354C19.3674 19.9786 19.2559 20.0005 19.1433 20Z" fill="white"/>
</svg>
