<svg width="20" height="19" viewBox="0 0 20 19" fill="none" xmlns="http://www.w3.org/2000/svg">
<path d="M17.5415 6.72568L17.2115 6.54174C16.9211 6.39219 16.6768 6.16656 16.5046 5.88896C16.4893 5.86462 16.4749 5.83847 16.446 5.78798C16.2517 5.47591 16.1574 5.11195 16.1755 4.74479L16.181 4.3616C16.1918 3.74849 16.1972 3.44013 16.1106 3.16423C16.0341 2.91873 15.9059 2.69246 15.7346 2.50063C15.5417 2.28423 15.2739 2.12915 14.7374 1.82079L14.292 1.56383C13.7583 1.25637 13.4905 1.10219 13.2065 1.04359C12.9555 0.991635 12.6964 0.993787 12.4464 1.0499C12.1642 1.11301 11.9 1.2717 11.3725 1.58727L11.3698 1.58907L11.0507 1.77932C11.0002 1.80997 10.974 1.8244 10.9488 1.83883C10.6981 1.97858 10.4186 2.05522 10.131 2.06424C10.1021 2.06604 10.0724 2.06604 10.0138 2.06604L9.89657 2.06514C9.60884 2.05608 9.32748 1.97816 9.07608 1.83793C9.05084 1.8244 9.02649 1.80907 8.976 1.77842L8.65412 1.58547C8.12306 1.26629 7.85708 1.1076 7.57306 1.04359C7.3221 0.987356 7.06201 0.985511 6.81028 1.03818C6.52536 1.09768 6.25848 1.25277 5.72381 1.56293L5.72111 1.56383L5.28111 1.81899L5.2766 1.8226C4.74644 2.12915 4.48046 2.28423 4.28931 2.49972C4.11897 2.69123 3.99141 2.91684 3.91514 3.16152C3.82948 3.43832 3.83399 3.74668 3.84481 4.3634L3.85112 4.74569C3.85112 4.8043 3.85383 4.83315 3.85292 4.8611C3.84816 5.18867 3.75435 5.50877 3.58153 5.78708C3.55178 5.83757 3.53825 5.86282 3.52293 5.88626C3.3709 6.13166 3.16219 6.33697 2.91432 6.48494L2.81334 6.54174L2.48785 6.72207C1.94507 7.02231 1.67368 7.17289 1.47712 7.38748C1.30237 7.57667 1.17017 7.8011 1.08942 8.04567C0.999255 8.32247 0.999255 8.63173 1.00016 9.25205L1.00196 9.75967C1.00286 10.3755 1.00466 10.6829 1.09573 10.9579C1.17614 11.201 1.30738 11.4241 1.48073 11.6125C1.67728 11.8253 1.94597 11.975 2.48424 12.2743L2.80703 12.4538C2.86203 12.4844 2.88998 12.4988 2.91613 12.5151C3.19868 12.6844 3.42943 12.928 3.58334 13.2192L3.64374 13.3274C3.79604 13.615 3.8677 13.9384 3.85112 14.2633L3.84481 14.6303C3.83399 15.2488 3.82948 15.559 3.91604 15.8358C3.99268 16.081 4.12071 16.3073 4.29202 16.4994C4.48497 16.7158 4.75365 16.87 5.28922 17.1792L5.73463 17.4362C6.2693 17.7436 6.53618 17.8978 6.8202 17.9564C7.07113 18.0083 7.33024 18.0062 7.58027 17.9501C7.86339 17.887 8.12757 17.7283 8.65682 17.4109L8.976 17.2198C9.25092 17.0428 9.56885 16.944 9.89567 16.934H10.1301C10.4168 16.943 10.6981 17.0214 10.9506 17.1612L11.0335 17.2108L11.3725 17.4145C11.9045 17.7337 12.1696 17.8924 12.4536 17.9555C12.7044 18.0123 12.9645 18.0147 13.2164 17.9627C13.5004 17.9032 13.7691 17.7472 14.3038 17.4371L14.7501 17.1783C15.2802 16.87 15.5462 16.7158 15.7373 16.5003C15.9087 16.3082 16.0349 16.0828 16.1115 15.8385C16.1972 15.5635 16.1927 15.2578 16.1819 14.6501L16.1746 14.2534C16.1567 13.8868 16.2511 13.5235 16.4451 13.212L16.5037 13.1128C16.6558 12.8674 16.8645 12.6621 17.1123 12.5142L17.2115 12.4592L17.2133 12.4583L17.5388 12.2779C18.0816 11.9768 18.353 11.8271 18.5504 11.6125C18.7254 11.4232 18.857 11.1978 18.9372 10.9543C19.0274 10.6793 19.0274 10.371 19.0256 9.75787L19.0238 9.24033C19.0229 8.62452 19.022 8.31616 18.9309 8.04116C18.8501 7.79838 18.7185 7.57555 18.545 7.38748C18.3494 7.17469 18.0807 7.02502 17.5433 6.72658L17.5415 6.72568Z" stroke="white" stroke-opacity="0.5" stroke-width="1.5" stroke-linecap="round" stroke-linejoin="round"/>
<path d="M6.40637 9.50009C6.40637 10.4566 6.78634 11.3739 7.4627 12.0503C8.13906 12.7266 9.05639 13.1066 10.0129 13.1066C10.9694 13.1066 11.8868 12.7266 12.5631 12.0503C13.2395 11.3739 13.6194 10.4566 13.6194 9.50009C13.6194 8.54357 13.2395 7.62624 12.5631 6.94988C11.8868 6.27353 10.9694 5.89355 10.0129 5.89355C9.05639 5.89355 8.13906 6.27353 7.4627 6.94988C6.78634 7.62624 6.40637 8.54357 6.40637 9.50009Z" stroke="white" stroke-opacity="0.5" stroke-width="1.5" stroke-linecap="round" stroke-linejoin="round"/>
</svg>
