<svg width="29" height="22" viewBox="0 0 29 22" fill="none" xmlns="http://www.w3.org/2000/svg">
<path d="M18.9333 1V3.85714M18.9333 9.57143V12.4286M18.9333 18.1429V21M4.48886 1H24.7111C25.4773 1 26.2121 1.30102 26.7538 1.83684C27.2956 2.37266 27.6 3.09938 27.6 3.85714V8.14286C26.8338 8.14286 26.099 8.44388 25.5572 8.9797C25.0155 9.51551 24.7111 10.2422 24.7111 11C24.7111 11.7578 25.0155 12.4845 25.5572 13.0203C26.099 13.5561 26.8338 13.8571 27.6 13.8571V18.1429C27.6 18.9006 27.2956 19.6273 26.7538 20.1632C26.2121 20.699 25.4773 21 24.7111 21H4.48886C3.72268 21 2.98788 20.699 2.44611 20.1632C1.90434 19.6273 1.59998 18.9006 1.59998 18.1429V13.8571C2.36616 13.8571 3.10096 13.5561 3.64273 13.0203C4.1845 12.4845 4.48886 11.7578 4.48886 11C4.48886 10.2422 4.1845 9.51551 3.64273 8.9797C3.10096 8.44388 2.36616 8.14286 1.59998 8.14286V3.85714C1.59998 3.09938 1.90434 2.37266 2.44611 1.83684C2.98788 1.30102 3.72268 1 4.48886 1Z" stroke="#75859D" stroke-width="2" stroke-linecap="round" stroke-linejoin="round"/>
</svg>
