<svg width="57" height="62" viewBox="0 0 57 62" fill="none" xmlns="http://www.w3.org/2000/svg">
<path d="M28.3447 30.103C28.5187 29.9313 28.7545 29.8349 29.0003 29.8349C29.2462 29.8349 29.482 29.9313 29.6559 30.103L40.4053 40.7282C40.4909 40.8157 40.5933 40.8855 40.7065 40.9335C40.8197 40.9815 40.9415 41.0068 41.0646 41.0078C41.1878 41.0088 41.31 40.9855 41.424 40.9393C41.538 40.8932 41.6415 40.825 41.7286 40.7389C41.8156 40.6528 41.8845 40.5503 41.9311 40.4376C41.9777 40.3249 42.0011 40.2041 42 40.0824C41.9988 39.9606 41.9732 39.8403 41.9245 39.7285C41.8758 39.6166 41.8051 39.5154 41.7165 39.4309L30.9683 28.8058C30.7099 28.5503 30.4031 28.3477 30.0654 28.2094C29.7277 28.0712 29.3658 28 29.0003 28C28.6348 28 28.2729 28.0712 27.9352 28.2094C27.5975 28.3477 27.2907 28.5503 27.0323 28.8058L16.2829 39.4309C16.1943 39.5155 16.1237 39.6167 16.0751 39.7286C16.0266 39.8405 16.001 39.9609 16 40.0826C15.999 40.2044 16.0226 40.3251 16.0693 40.4378C16.116 40.5505 16.1849 40.6529 16.272 40.7389C16.3592 40.825 16.4628 40.893 16.5768 40.9391C16.6909 40.9851 16.813 41.0083 16.9362 41.0072C17.0594 41.006 17.1811 40.9807 17.2943 40.9326C17.4075 40.8845 17.5098 40.8146 17.5953 40.7269L28.3447 30.103Z" fill="white"/>
<path d="M29.0002 32.0483L39.0927 42.0242C39.1298 42.0609 39.167 42.0951 39.2053 42.1294V49.7076C39.2053 50.973 38.1662 52.0001 36.886 52.0001H32.7112C32.4651 52.0001 32.2291 51.9035 32.0551 51.7315C31.8812 51.5595 31.7834 51.3263 31.7834 51.0831V45.581C31.7834 45.3378 31.6857 45.1045 31.5117 44.9326C31.3377 44.7606 31.1017 44.664 30.8557 44.664H27.1447C26.8987 44.664 26.6627 44.7606 26.4887 44.9326C26.3147 45.1045 26.217 45.3378 26.217 45.581V51.0831C26.217 51.3263 26.1193 51.5595 25.9453 51.7315C25.7713 51.9035 25.5353 52.0001 25.2893 52.0001H21.1145C20.4993 52.0001 19.9094 51.7586 19.4744 51.3286C19.0395 50.8987 18.7951 50.3156 18.7951 49.7076V42.1294C18.8336 42.0953 18.8711 42.0603 18.9077 42.0242L29.0002 32.0483Z" fill="white"/>
<rect width="57" height="6" rx="3" fill="white"/>
<path d="M9.34426 6H47.6557L57 62H0L9.34426 6Z" fill="url(#paint0_linear_1238_80)"/>
<defs>
<linearGradient id="paint0_linear_1238_80" x1="28.5" y1="6" x2="28.5" y2="62" gradientUnits="userSpaceOnUse">
<stop stop-color="white" stop-opacity="0.15"/>
<stop offset="1" stop-color="white" stop-opacity="0"/>
</linearGradient>
</defs>
</svg>
