<svg width="20" height="24" viewBox="0 0 20 24" fill="none" xmlns="http://www.w3.org/2000/svg">
<path d="M9.99999 1.20181e-08C7.47047 -0.000126467 5.04312 0.998108 3.24551 2.77774C1.4479 4.55737 0.42532 6.97457 0.400024 9.50397C0.400024 16.0799 8.86 23.3999 9.22 23.7119C9.43736 23.8978 9.71397 24 9.99999 24C10.286 24 10.5626 23.8978 10.78 23.7119C11.2 23.3999 19.6 16.0799 19.6 9.50397C19.5747 6.97457 18.5521 4.55737 16.7545 2.77774C14.9569 0.998108 12.5295 -0.000126467 9.99999 1.20181e-08ZM9.99999 21.1799C7.996 19.2719 2.80002 13.98 2.80002 9.50397C2.80002 7.59442 3.55858 5.76307 4.90884 4.41282C6.2591 3.06256 8.09044 2.30399 9.99999 2.30399C11.9095 2.30399 13.7409 3.06256 15.0911 4.41282C16.4414 5.76307 17.2 7.59442 17.2 9.50397C17.2 13.944 12.004 19.2719 9.99999 21.1799Z" fill="#75859D"/>
<path d="M10 4.79998C9.16932 4.79998 8.35729 5.04631 7.66661 5.50781C6.97592 5.96931 6.4376 6.62526 6.11971 7.39271C5.80183 8.16015 5.71865 9.00463 5.88071 9.81935C6.04277 10.6341 6.44278 11.3824 7.03016 11.9698C7.61754 12.5572 8.3659 12.9572 9.18062 13.1193C9.99534 13.2813 10.8398 13.1981 11.6073 12.8803C12.3747 12.5624 13.0307 12.024 13.4922 11.3334C13.9537 10.6427 14.2 9.83065 14.2 8.99997C14.2 7.88606 13.7575 6.81778 12.9698 6.03013C12.1822 5.24248 11.1139 4.79998 10 4.79998ZM10 10.8C9.64399 10.8 9.29598 10.6944 8.99997 10.4966C8.70397 10.2988 8.47326 10.0177 8.33702 9.6888C8.20078 9.35989 8.16513 8.99797 8.23459 8.64881C8.30404 8.29964 8.47547 7.97892 8.72721 7.72718C8.97894 7.47545 9.29967 7.30402 9.64883 7.23456C9.998 7.16511 10.3599 7.20076 10.6888 7.33699C11.0177 7.47323 11.2989 7.70394 11.4966 7.99995C11.6944 8.29596 11.8 8.64396 11.8 8.99997C11.8 9.47736 11.6103 9.93519 11.2728 10.2728C10.9352 10.6103 10.4774 10.8 10 10.8Z" fill="#75859D"/>
</svg>
