<svg width="50" height="50" viewBox="0 0 50 50" fill="none" xmlns="http://www.w3.org/2000/svg">
<path d="M50 25C50 38.8071 38.8071 50 25 50C11.1929 50 0 38.8071 0 25C0 11.1929 11.1929 0 25 0C38.8071 0 50 11.1929 50 25Z" fill="#EBF5F9"/>
<path d="M14 22.7987C14 28.4484 18.422 31.4586 21.6582 34.1539C22.8 35.1043 23.9 36 25 36C26.1 36 27.2 35.1054 28.3418 34.1528C31.5791 31.4598 36 28.4484 36 22.7998C36 17.1501 29.95 13.1431 25 18.5756C20.05 13.1419 14 17.1489 14 22.7987Z" fill="#313640"/>
</svg>
